# xmcd
#
# Track frame offsets: 
#        150
#        37289
#        88838
#        122260
#        170529
#        201644
#        308911
#
# Disc length: 4573 seconds
#
# Revision: 2
# Processed by: cddbd v1.5.2PL0 Copyright (c) Steve Scherf et al.
# Submitted via: ExactAudioCopy v1.0b4
#
DISCID=6211db07
DTITLE=Eric Clapton - Give Me Strength: The '74'75 Recordings [CD4]
DTITLE=E.C. Was Here
DYEAR=1974
DGENRE=Classic Rock
TTITLE0=Rambling On My Mind - Have You Ever Loved A Woman
TTITLE1=Willie And The Hand Jive - Get Ready
TTITLE2=The Sky Is Crying - Have You Ever Loved A Woman - Rambling On 
TTITLE2=My Mind
TTITLE3=Badge
TTITLE4=Drifting Blues
TTITLE5=Eyesight To The Blind - Why Does Love Got To Be So Sad
TTITLE6=Further On Up The Road
EXTD=
EXTT0=
EXTT1=
EXTT2=
EXTT3=
EXTT4=
EXTT5=
EXTT6=
PLAYORDER=
